<svg height="96" viewBox="0 0 96 96" width="96" xmlns="http://www.w3.org/2000/svg"><path d="M44 12v62.344L22.543 52.888a4 4 0 0 0-5.656 5.657L45.17 86.828c.187.186.392.352.61.498.1.067.21.114.315.172.124.066.242.142.373.195.135.057.275.09.415.13.11.032.216.075.33.098.26.054.524.08.787.08h.01c.258 0 .518-.027.773-.08.12-.022.23-.067.348-.102.135-.04.27-.07.4-.123.14-.058.264-.136.395-.208.098-.054.198-.097.292-.16a3.94 3.94 0 0 0 .614-.5l28.28-28.282a4 4 0 0 0-5.655-5.657L52 74.343V12a4 4 0 0 0-8 0z"/></svg>